<svg class="svg-box-content" width="512" height="512" version="1.1" xmlns="http://www.w3.org/2000/svg" xmlns:xlink="http://www.w3.org/1999/xlink"><g transform="scale(3)translate(10,-80)"><g><path d="M0,99.99999999999997L0.33333333333333337,101.5337032228872L0.6666666666666667,103.05488150179886L1,104.56363712133557L1.3333333333333335,106.06007153079366L1.6666666666666667,107.54428535098663L2,109.01637838101084L2.3333333333333335,110.47644960495643L2.666666666666667,111.92459719856245L3,113.3609185358188L3.3333333333333335,114.7855101955133L3.6666666666666665,116.19846796772592L4,117.59988686026958L4.333333333333334,118.98986110507866L4.666666666666667,120.36848416454501L5,121.73584873780263L5.333333333333334,123.09204676696055L5.666666666666666,124.4371694432852L6,125.77130721333222L6.333333333333334,127.09454978502782L6.666666666666667,128.40698613370114L7.000000000000001,129.70870450806672L7.333333333333333,130.99979243615851L7.666666666666666,132.2803367312152L8,133.55042349751767L8.333333333333332,134.8101381361786L8.666666666666668,136.05956535088492L9,137.29878915359333L9.333333333333334,138.5278928701791L9.666666666666666,139.74695914603933L10,140.95606995164965L10.333333333333334,142.1553065880762L10.666666666666668,143.34474969244218L11,144.5244792433502L11.333333333333332,145.69457456625963L11.666666666666666,146.8551143388209L12,148.0061765961655L12.333333333333334,149.14783873615335L12.666666666666668,150.28017752457683L13,151.40326910032272L13.333333333333334,152.5171889804917L13.666666666666666,153.62201206547624L14.000000000000002,154.7178126439968L14.333333333333334,155.80466439809715L14.666666666666666,156.88264040809872L15,157.95181315751458L15.333333333333332,159.01225453792316L15.666666666666668,160.0640358538025L16,161.1072278273245L16.333333333333332,162.1419006031105L16.666666666666664,163.1681237529478L17,164.1859662804676L17.333333333333336,165.19549662578495L17.666666666666668,166.19678267010067L18,167.18989174026555L18.333333333333332,168.17489061330772L18.666666666666668,169.15184552092245L19,170.12082215392581L19.333333333333332,171.08188566667172L19.666666666666664,172.03510068143288L20,172.98053129274592L20.333333333333332,173.91824107172147L20.666666666666668,174.8482930703183L21,175.77074982558324L21.333333333333336,176.68567336385598L21.666666666666668,177.59312520494007L22,178.49316636623908L22.333333333333332,179.38585736685985L22.666666666666664,180.27125823168166L23,181.14942849539213L23.333333333333332,182.02042720649075L23.666666666666668,182.88431293125893L24,183.74114375769835L24.333333333333336,184.5909772994366L24.666666666666668,185.43387069960113L25,186.2698806346619L25.333333333333336,187.09906331824175L25.666666666666664,187.92147450489682L26,188.73716949386517L26.333333333333332,189.54620313278514L26.666666666666668,190.34862982138344L27,191.14450351513293L27.333333333333332,191.93387772888065L27.666666666666668,192.7168055404461L28.000000000000004,193.49333959419036L28.333333333333332,194.26353210455576L28.666666666666668,195.02743485957689L28.999999999999996,195.78509922436274L29.333333333333332,196.53657614455074L29.666666666666668,197.28191614973207L30,198.02116935684955L30.333333333333336,198.7543854735673L30.666666666666664,199.48161380161332L31,200.20290324009434L31.333333333333336,200.918302288784L31.666666666666664,201.62785905138378L32,202.3316212387578L32.33333333333333,203.02963617214067L32.666666666666664,203.7219507863195L33,204.4086116327898L33.33333333333333,202.61848158214838L33.666666666666664,201.20941668504418L34,199.82160762079263L34.333333333333336,198.45473374381442L34.66666666666667,197.10847924548898L35,195.78253308118875L35.333333333333336,194.47658889841392L35.66666666666667,193.19034496601157L36,191.92350410446213L36.333333333333336,190.6757736172179L36.666666666666664,189.44686522307714L37,188.23649498957803L37.333333333333336,187.04438326739805L37.666666666666664,185.87025462574218L38,184.71383778870643L38.333333333333336,183.57486557260086L38.666666666666664,182.45307482421845L39,181.3482063600348L39.33333333333333,180.26000490632532L39.666666666666664,179.18821904018574L40,178.13260113144213L40.33333333333333,177.09290728543732L40.666666666666664,176.06889728668045L41,175.06033454334653L41.333333333333336,174.06698603261304L41.66666666666667,173.08862224682167L42,172.12501714045138L42.333333333333336,171.17594807789217L42.66666666666667,170.2411957820063L43,169.32054428346535L43.333333333333336,168.41378087085207L43.666666666666664,167.5206960415141L44,166.64108345315998L44.333333333333336,165.77473987618467L44.666666666666664,164.92146514671455L45,164.08106212036068L45.33333333333333,163.2533366266696L45.666666666666664,162.43809742426149L46,161.63515615664465L46.33333333333333,160.8443273086971L46.666666666666664,160.0654281638041L47,159.29827876164256L47.333333333333336,158.5427018566023L47.66666666666667,157.79852287683423L48,157.06556988391665L48.333333333333336,156.34367353312985L48.66666666666667,155.63266703432987L49,154.93238611341258L49.333333333333336,154.24266897435908L49.666666666666664,153.5633562618536L50,152.89429102446545L50.33333333333333,152.23531867838602L50.66666666666667,151.58628697171332L51,150.94704594927487L51.33333333333333,150.31744791798144L51.66666666666667,149.69734741270335L52,149.08660116266157L52.33333333333333,148.48506805832582L52.666666666666664,147.892609118812L53,147.30908745977138L53.333333333333336,146.7343682617643L53.666666666666664,146.16831873911084L54,145.6108081092114L54.333333333333336,145.0617075623302L54.666666666666664,144.52089023183441L55.00000000000001,143.98823116488242L55.333333333333336,143.46360729355402L55.666666666666664,142.94689740641638L56.00000000000001,142.43798212051885L56.333333333333336,141.93674385381001L56.666666666666664,141.44306679797123L56.99999999999999,140.95683689165946L57.333333333333336,140.47794179415445L57.666666666666664,140.0062708594027L57.99999999999999,139.5417151104533L58.333333333333336,139.0841672142797L58.666666666666664,138.6335214569807L59,138.18967371935602L59.333333333333336,137.7525214528501L59.66666666666667,137.32196365585872L60,136.89790085039334L60.333333333333336,136.4802350590971L60.66666666666667,136.06886978260775L61,135.66370997726202L61.33333333333333,135.26466203313623L61.66666666666667,134.8716337524184L62,134.4845343281064L62.33333333333333,134.10327432302722L62.66666666666667,133.72776564917348L63,133.35792154735086L63.33333333333333,132.99365656713294L63.66666666666667,132.63488654711847L64,132.28152859548612L64.33333333333333,131.9335010708429L64.66666666666666,131.59072356336156L65,131.253116876202L65.33333333333333,130.92060300721357L65.66666666666666,130.59310513091285L66,130.27054758073373L66.33333333333333,129.95285583154512L66.66666666666666,131.5112605551369L67,132.78762796027127L67.33333333333333,134.0535719471048L67.66666666666666,135.30917763818815L68,136.55452946092097L68.33333333333333,137.78971115322912L68.66666666666667,139.0148057691949L69,140.2298956846419L69.33333333333334,141.43506260267378L69.66666666666667,142.63038755916824L70,143.81595092822565L70.33333333333334,144.99183242757366L70.66666666666667,146.15811112392726L71,147.3148654383055L71.33333333333334,148.46217315130426L71.66666666666667,149.60011140832637L72,150.72875672476903L72.33333333333334,151.84818499116852L72.66666666666667,152.95847147830327L73,154.05969084225495L73.33333333333333,155.1519171294285L73.66666666666667,156.235223781531L74,157.3096836405099L74.33333333333333,158.37536895345087L74.66666666666667,159.43235137743594L75,160.48070198436147L75.33333333333333,161.52049126571728L75.66666666666667,162.55178913732644L76,163.5746649440463L76.33333333333333,164.58918746443157L76.66666666666667,165.59542491535873L77,166.59344495661307L77.33333333333333,167.58331469543825L77.66666666666666,168.56510069104837L78,169.53886895910372L78.33333333333333,170.50468497614952L78.66666666666666,171.46261368401866L79,172.4127194941983L79.33333333333333,173.3550662921612L79.66666666666666,174.28971744166103L80,175.21673578899316L80.33333333333333,176.13618366722068L80.66666666666666,177.04812290036517L81,177.95261480756437L81.33333333333333,178.84972020719488L81.66666666666667,179.73949942096175L82,180.62201227795455L82.33333333333334,181.49731811867028L82.66666666666667,182.3654757990035L83,183.22654369420366L83.33333333333334,184.08057970280043L83.66666666666667,184.9276412504969L84,185.76778529403063L84.33333333333334,186.6010683250036L84.66666666666667,187.42754637368085L85,188.2472750127577L85.33333333333334,189.0603093610967L85.66666666666667,189.86670408743373L86,190.66651341405407L86.33333333333333,191.45979112043813L86.66666666666667,192.24659054687777L87,193.02696459806288L87.33333333333333,193.80096574663867L87.66666666666667,194.56864603673395L88,195.33005708746074L88.33333333333333,196.08525009638493L88.66666666666667,196.8342758429689L89,197.57718469198616L89.33333333333333,198.31402659690758L89.66666666666666,199.0448511032604L90,199.76970735195988L90.33333333333333,200.48864408261323L90.66666666666666,201.2017096367971L91,201.90895196130796L91.33333333333333,202.61041861138625L91.66666666666666,203.3061567539138L92,203.99621317058535L92.33333333333333,204.68063426105448L92.66666666666666,205.35946604605306L93,206.03275417048616L93.33333333333333,206.70054390650085L93.66666666666667,207.3628801565307L94,208.0198074563146L94.33333333333334,208.67136997789174L94.66666666666667,209.31761153257156L95,209.9585755738796L95.33333333333334,210.5943052004796L95.66666666666667,211.22484315907113L96,211.85023184726407L96.33333333333334,212.47051331642945L96.66666666666667,213.08572927452698L97,213.69592108890944L97.33333333333334,214.30112978910435L97.66666666666667,214.9013960695727L98,215.4967602924454L98.33333333333333,216.08726249023704L98.66666666666667,216.67294236853795L99,217.25383930868378L99.33333333333333,217.8299923704036L99.66666666666667,218.40144029444642L100,216.38412078751082L100.33333333333334,214.76740035469592L100.66666666666666,213.1750682515882L101,211.6067565786957L101.33333333333334,210.06210298631345L101.66666666666666,208.5407505908047L102,207.04234789214485L102.33333333333334,205.5665486927093L102.66666666666666,204.1130120172865L103,202.68140203429743L103.33333333333334,201.27138797820373L103.66666666666666,199.8826440730859L104,198.51484945737485L104.33333333333333,197.16768810971843L104.66666666666666,195.84084877596655L105,194.5340248972576L105.33333333333333,193.2469145391898L105.66666666666666,191.9792203220607L106,190.73064935215962L106.33333333333333,189.50091315409583L106.66666666666667,188.28972760414814L107,187.09681286461958L107.33333333333333,185.92189331918252L107.66666666666667,184.76469750919898L108,183.62495807100174L108.33333333333333,182.50241167412122L108.66666666666667,181.39679896044476L109.00000000000001,180.30786448429302L109.33333333333333,179.23535665340094L109.66666666666667,178.17902767078868L110.00000000000001,177.13863347750936L110.33333333333333,176.11393369626083L110.66666666666667,175.1046915758476L111.00000000000001,174.11067393648094L111.33333333333333,173.13165111590396L111.66666666666667,172.16739691632944L112.00000000000001,171.2176885521779L112.33333333333333,170.28230659860452L112.66666666666667,169.36103494080206L112.99999999999999,168.45366072406878L113.33333333333333,167.55997430462955L113.66666666666667,166.67976920119878L113.99999999999999,165.8128420472741L114.33333333333333,164.95899254414974L114.66666666666667,164.11802341463843L114.99999999999999,163.28974035749175L115.33333333333333,162.4739520025079L115.66666666666667,161.6704698663166L115.99999999999999,160.87910830883118L116.33333333333333,160.0996844903573L116.66666666666667,159.33201832934893L117,158.57593246080157L117.33333333333333,157.83125219527304L117.66666666666667,157.09780547852236L118,156.3754228517576L118.33333333333333,155.66393741248345L118.66666666666667,154.96318477593925L119,154.27300303711883L119.33333333333334,153.59323273336327L119.66666666666667,152.92371680751782L120,152.26430057164498L120.33333333333334,151.61483167128438L120.66666666666667,150.97516005025238L121,150.34513791597234L121.33333333333334,149.72461970532794L121.66666666666666,149.1134620510317L122,148.51152374850057L122.33333333333334,147.91866572323173L122.66666666666666,147.33475099866985L123,146.7596446645597L123.33333333333334,146.1932138457757L123.66666666666666,145.6353276716219L124,145.0858572455951L124.33333333333334,144.54467561560398L124.66666666666666,144.0116577446375L125,143.4866804818758L125.33333333333334,142.96962253423698L125.66666666666666,142.46036443835283L126,141.95878853296762L126.33333333333334,141.4647789317532L126.66666666666666,140.97822149653382L127,140.49900381091538L127.33333333333334,140.0270151543122L127.66666666666666,139.56214647636563L128,139.1042903717485L128.33333333333334,138.65334105534976L128.66666666666666,138.20919433783357L129,137.77174760156657L129.33333333333331,137.34089977690908L129.66666666666666,136.91655131886324L130,136.4986041840737L130.33333333333331,136.08696180817543L130.66666666666666,135.68152908348281L131,135.28221233701575L131.33333333333331,134.88891930885688L131.66666666666666,134.50155913083566L132,134.12004230553342L132.33333333333331,133.7442806856059L132.66666666666666,133.374187453417L133,133.00967710098007L133.33333333333331,132.65066541020195L133.66666666666666,132.29706943342467L134,131.94880747426095L134.33333333333331,131.60579906871857L134.66666666666666,131.26796496660975L135,130.93522711324093L135.33333333333331,130.60750863137832L135.66666666666666,130.28473380348618L136,129.96682805423254L136.33333333333331,129.65371793325897L136.66666666666666,129.34533109821038L137,129.04159629802072L137.33333333333334,128.74244335645062L137.66666666666666,128.4478031558738L138,128.1576076213078L138.33333333333334,127.87178970468545L138.66666666666669,127.5902833693639L139,127.31302357486734L139.33333333333334,127.03994626185954L139.66666666666669,126.7709883373434L140,126.5060876600837L140.33333333333334,126.2451830262496L140.66666666666669,125.98821415527408L141,125.73512167592608L141.33333333333334,125.4858471125934L141.66666666666669,125.24033287177215L142,124.99852222876001L142.33333333333334,124.76035931455047L142.66666666666669,124.52578910292442L143,124.29475739773676L143.33333333333334,124.0672108203947L143.66666666666669,123.84309679752488L144,123.62236354882648L144.33333333333334,123.40496007510797L144.66666666666669,123.1908361465037L145,122.9799422908687L145.33333333333334,122.7722297823486L145.66666666666669,122.56765063012142L146,122.3661575673099L146.33333333333334,122.16770404006047L146.66666666666666,121.9722441967875L147,121.77973287757936L147.33333333333334,121.59012560376456L147.66666666666666,121.40337856763514L148,121.21944862232522L148.33333333333334,121.0382932718421L148.66666666666666,120.85987066124773L149,120.68413956698862L149.33333333333334,120.511059387371L149.66666666666666,120.34059013318037L150,120.1726924184419L150.33333333333334,120.00732745132075L150.66666666666666,119.84445702515941L151,119.68404350965011L151.33333333333334,119.52604984214071L151.66666666666666,119.37043951907148L152,119.21717658754119L152.33333333333334,119.06622563700046L152.66666666666666,118.91755179107017L153,118.7711206994837L153.33333333333334,118.62689853015024L153.66666666666666,118.48485196133834L154,118.34494817397686L154.33333333333331,118.20715484407245L154.66666666666666,118.07144013524123L155,117.9377726913533L155.33333333333331,117.80612162928776L155.66666666666666,117.67645653179767L156,117.54874744048212L156.33333333333331,117.42296484886458L156.66666666666666,117.29907969557561L157,117.17706335763833L157.33333333333331,117.05688764385528L157.66666666666666,116.93852478829501L158,116.82194744387684L158.33333333333331,116.70712867605263L158.66666666666666,116.59404195658345L159,116.48266115741066L159.33333333333331,116.37296054461899L159.66666666666666,116.2649147724909L160,116.15849887765057L160.33333333333331,116.05368827329633L160.66666666666666,115.9504587435199L161,115.8487864377116L161.33333333333331,115.74864786504963L161.66666666666666,115.65001988907275L162,115.55287972233461L162.33333333333334,115.45720492113904L162.66666666666666,115.36297338035445L163,115.27016332830644L163.33333333333334,115.17875332174773L163.66666666666669,115.08872224090388L164,115.0000492845935L164.33333333333334,114.91271396542226L164.66666666666669,114.82669610504956L165,114.74197582952638L165.33333333333334,114.65853356470336L165.66666666666669,114.57635003170853L166,114.49540624249283L166.33333333333334,114.41568349544318L166.66666666666669,114.3371633710614L167,114.25982772770877L167.33333333333334,114.18365869741424L167.66666666666669,114.10863868174624L168,114.03475034774664L168.33333333333334,113.96197662392606L168.66666666666669,113.89030069631968L169,113.81970600460238L169.33333333333334,113.75017623826255L169.66666666666669,113.6816953328337L170,113.6142474661828L170.33333333333334,113.54781705485476L170.66666666666669,113.4823887504719L171,113.41794743618766L171.33333333333334,113.35447822319412L171.66666666666666,113.29196644728208L172,113.23039766545276L172.33333333333334,113.1697576525809L172.66666666666666,113.11003239812817L173,113.05120810290623L173.33333333333334,112.99327117588814L173.66666666666666,112.93620823106863L174,112.88000608437113L174.33333333333334,112.82465175060162L174.66666666666666,112.77013244044858L175,112.71643555752817L175.33333333333334,112.66354869547362L175.66666666666666,112.61145963506914L176,112.5601563414265L176.33333333333334,112.5096269612045L176.66666666666666,112.45985981987045L177,112.41084341900256L177.33333333333334,112.36256643363359L177.66666666666666,112.31501770963408L178,112.26818626113533L178.33333333333334,112.2220612679912L178.66666666666666,112.17663207327809L179,112.13188818083276L179.33333333333331,112.0878192528273L179.66666666666666,112.0444151073805L180,112.00166571620565L180.33333333333331,111.95956120229312L180.66666666666666,111.91809183762885L181,111.87724804094626L181.33333333333331,111.83702037551296L181.66666666666666,111.79739954695017L182,111.75837640108543L182.33333333333331,111.71994192183755L182.66666666666666,111.68208722913337L183,111.64480357685648L183.33333333333331,111.6080823508259L183.66666666666666,111.5719150668063L184,111.53629336854746L184.33333333333331,111.50120902585374L184.66666666666666,111.46665393268259L185,111.43262010527155L185.33333333333331,111.3990996802938L185.66666666666666,111.36608491304119L186,111.3335681756351L186.33333333333331,111.30154195526376L186.66666666666666,111.26999885244692L187,111.23893157932571L187.33333333333334,111.20833295797914L187.66666666666666,111.17819591876571L188,111.14851349868974L188.33333333333334,111.11927883979291L188.66666666666669,111.09048518756958L189,111.06212588940625L189.33333333333334,111.03419439304454L189.66666666666669,111.0066842450673L190,110.97958908940754L190.33333333333334,110.95290266588003L190.66666666666669,110.92661880873473L191,110.90073144523234L191.33333333333334,110.8752345942413L191.66666666666669,110.85012236485574L192,110.82538895503447L192.33333333333334,110.80102865026049L192.66666666666669,110.77703582222057L193,110.75340492750504L193.33333333333334,110.73013050632684L193.66666666666669,110.70720718126023L194,110.68462965599821L194.33333333333334,110.66239271412886L194.66666666666669,110.64049121793028L195,110.61892010718327L195.33333333333334,110.59767439800257L195.66666666666669,110.57674918168502L196,110.55613962357546L196.33333333333334,110.53584096194999L196.66666666666666,110.51584850691555L197,110.49615763932638L197.33333333333334,110.4767638097168L197.66666666666666,110.4576625372502L198,110.43884940868361L198.33333333333334,110.42032007734815L198.66666666666666,110.40207026214463L199,110.3840957465546L199.33333333333334,110.36639237766607L199.66666666666666,110.34895606521388L200,110.33178278063485L200.33333333333334,110.31486855613696L200.66666666666669,110.29820948378253L200.99999999999997,110.28180171458533L201.33333333333331,110.26564145762146L201.66666666666666,110.24972497915326L202,110.23404860176669L202.33333333333334,110.2186087035218L202.66666666666669,110.20340171711584L202.99999999999997,110.18842412905906L203.33333333333331,110.17367247886284L203.66666666666666,110.15914335824033L204,110.14483341031885L204.33333333333334,110.13073932886442L204.66666666666669,110.11685785751772L204.99999999999997,110.1031857890419L205.33333333333331,110.08971996458143L205.66666666666666,110.07645727293237L206,110.06339464982338L206.33333333333334,110.05052907720795L206.66666666666669,110.03785758256694L206.99999999999997,110.02537723822186L207.33333333333331,110.01308516065848L207.66666666666666,110.00097850986049L208,109.98905448865344L208.33333333333334,109.97731034205842L208.66666666666666,109.96574335665557L209,109.95435085995712L209.33333333333331,109.94313021979002L209.66666666666666,109.93207884368758L210,109.92119417829073L210.33333333333334,109.91047370875796L210.66666666666666,109.89991495818433L211,109.88951548702912L211.33333333333331,109.8792728925522L211.66666666666666,109.86918480825912L212,109.85924890335389L212.33333333333334,109.84946288220087L212.66666666666666,109.83982448379422L213,109.83033148123553L213.33333333333334,109.82098168121922L213.66666666666669,109.8117729235259L214,109.80270308052326L214.33333333333334,109.79377005667442L214.66666666666666,109.78497178805375L215,109.77630624187026L215.33333333333334,109.76777141599752L215.66666666666669,109.75936533851143L216,109.75108606723444L216.33333333333334,109.74293168928693L216.66666666666666,109.7349003206451L217,109.7269901057058L217.33333333333334,109.71919921685782L217.66666666666669,109.71152585405954L218.00000000000003,109.7039682444231L218.33333333333331,109.69652464180473L218.66666666666666,109.68919332640138L219,109.68197260435335L219.33333333333334,109.67486080735284L219.66666666666669,109.6678562922587L220.00000000000003,109.66095744071654L220.33333333333331,109.65416265878511L220.66666666666666,109.6474703765677L221,109.64087904784967L221.33333333333334,109.63438714974109L221.66666666666669,109.62799318232499L222.00000000000003,109.62169566831065L222.33333333333331,109.61549315269244L222.66666666666666,109.6093842024136L223,109.60336740603503L223.33333333333334,109.59744137340937L223.66666666666669,109.59160473535965L224.00000000000003,109.58585614336306L224.33333333333331,109.58019426923937L224.66666666666666,109.57461780484397L225,109.56912546176574L225.33333333333334,109.56371597102924L225.66666666666669,109.55838808280174L225.99999999999997,109.55314056610425L226.33333333333331,109.54797220852709L226.66666666666666,109.54288181595001L227,109.53786821226603L227.33333333333334,109.53293023910987L227.66666666666669,109.52806675559026L227.99999999999997,109.52327663802629L228.33333333333331,109.51855877968796L228.66666666666666,109.5139120905402L229,109.50933549699138L229.33333333333334,109.50482794164489L229.66666666666669,109.50038838305514L229.99999999999997,109.49601579548676L230.33333333333331,109.49170916867766L230.66666666666666,109.4874675076056L231,109.48328983225838L231.33333333333334,109.47917517740731L231.66666666666669,109.47512259238417L231.99999999999997,109.47113114086179L232.33333333333331,109.46719990063733L232.66666666666666,109.46332796341969L233,109.45951443461914L233.33333333333334,109.45575843314111L233.66666666666666,109.45205909118232L234,109.4484155540303L234.33333333333331,109.4448269798661L234.66666666666666,109.44129253956945L235,109.43781141652761L235.33333333333334,109.43438280644648L235.66666666666666,109.4310059171647L236,109.42767996847073L236.33333333333331,109.4244041919226L236.66666666666666,109.42117783067033L237,109.41800013928102L237.33333333333334,109.41487038356681L237.66666666666666,109.41178784041495L238,109.40875179762094L238.33333333333334,109.40576155372403L238.66666666666669,109.40281641784492L239,109.39991570952631L239.33333333333334,109.39705875857564L239.66666666666666,109.39424490491027L240,109.39147349840493L240.33333333333334,109.38874389874152L240.66666666666669,109.38605547526123L241,109.38340760681871L241.33333333333334,109.38079968163865L241.66666666666666,109.37823109717445L242,109.37570125996893L242.33333333333334,109.3732095855172L242.66666666666669,109.37075549813173L243.00000000000003,109.3683384308093L243.33333333333331,109.36595782509988L243.66666666666666,109.36361313097777L244,109.36130380671437L244.33333333333334,109.35902931875313L244.66666666666669,109.35678914158626L245.00000000000003,109.3545827576333L245.33333333333331,109.3524096571214L245.66666666666666,109.3502693379678L246,109.34816130566364L246.33333333333334,109.34608507315977L246.66666666666669,109.34404016075416L247.00000000000003,109.3420260959812L247.33333333333331,109.34004241350235L247.66666666666666,109.33808865499884L248,109.33616436906559L248.33333333333334,109.334269111107L248.66666666666669,109.33240244323429L249.00000000000003,109.33056393416422L249.33333333333331,109.32875315911937L249.66666666666666,109.32696969973034L250,109.32521314393867L250.33333333333334,109.32348308590193L250.66666666666669,109.32177912589978L250.99999999999997,109.32010087024173L251.33333333333331,109.31844793117617L251.66666666666666,109.31681992680069L252,109.3152164809739L252.33333333333334,109.31363722322851L252.66666666666669,109.31208178868584L252.99999999999997,109.31054981797138L253.33333333333331,109.30904095713177L253.66666666666666,109.3075548575531L254,109.30609117588031L254.33333333333334,109.3046495739379L254.66666666666669,109.30322971865166L254.99999999999997,109.30183128197206L255.33333333333331,109.3004539407979L255.66666666666666,109.2990973769023L256,109.29776127685858L256.33333333333337,109.2964453319683L256.6666666666667,109.29514923818974L257,109.29387269606755L257.3333333333333,109.29261541066379L257.6666666666667,109.2913770914897L258,109.29015745243842L258.33333333333337,109.28895621171918L258.66666666666663,109.2877730917919L259,109.28660781930341L259.3333333333333,109.28546012502392L259.6666666666667,109.28432974378498L260,109.28321641441835L260.33333333333337,109.28211987969544L260.66666666666663,109.28103988626799L261,109.27997618460952L261.3333333333333,109.27892852895766L261.6666666666667,109.27789667725742L262,109.27688039110515L262.33333333333337,109.27587943569355L262.66666666666663,109.2748935797575L263,109.27392259552045L263.3333333333333,109.27296625864184L263.6666666666667,109.27202434816539L264,109.27109664646787L264.33333333333337,109.27018293920898L264.66666666666663,109.26928301528173L265,109.26839666676369L265.3333333333333,109.26752368886892L265.6666666666667,109.26666387990079L266,109.26581704120514L266.33333333333337,109.26498297712467L266.66666666666663,109.26416149495347L267,109.2633524048926L267.3333333333333,109.2625555200064L267.6666666666667,109.26177065617892L268,109.26099763207176L268.3333333333333,109.2602362690821L268.66666666666663,109.2594863913011L269,109.25874782547373L269.3333333333333,109.25802040095846L269.6666666666667,109.2573039496879L270,109.25659830612994L270.3333333333333,109.25590330724953L270.66666666666663,109.25521879247111L271,109.25454460364128L271.3333333333333,109.25388058499252L271.6666666666667,109.25322658310688L272,109.25258244688101L272.3333333333333,109.2519480274907L272.66666666666663,109.25132317835693L273,109.25070775511173L273.3333333333333,109.25010161556506L273.6666666666667,109.2495046196716L274,109.24891662949892L274.3333333333333,109.24833750919507L274.6666666666667,109.24776712495753L275,109.24720534500221L275.3333333333333,109.2466520395329L275.6666666666667,109.24610708071154L276,109.24557034262835L276.3333333333333,109.24504170127298L276.6666666666667,109.24452103450585L277,109.24400822202972L277.33333333333337,109.24350314536213L277.6666666666667,109.24300568780794L278,109.24251573443235L278.3333333333333,109.24203317203433L278.6666666666667,109.24155788912046L279,109.2410897758794L279.33333333333337,109.2406287241561L279.6666666666667,109.24017462742708L280,109.23972738077589L280.3333333333333,109.23928688086863L280.6666666666667,109.23885302593027L281,109.23842571572106L281.33333333333337,109.23800485151324L281.6666666666667,109.23759033606856L282,109.23718207361551L282.3333333333333,109.23677996982735L282.6666666666667,109.23638393180022L283,109.23599386803164L283.33333333333337,109.23560968839965L283.66666666666663,109.23523130414168L284,109.23485862783403L284.3333333333333,109.23449157337203L284.6666666666667,109.23413005594972L285,109.23377399204057L285.33333333333337,109.2334232993779L285.66666666666663,109.23307789693621L286,109.2327377049121L286.3333333333333,109.23240264470616L286.6666666666667,109.23207263890453L287,109.23174761126126L287.33333333333337,109.2314274866805L287.66666666666663,109.23111219119923L288,109.23080165197021L288.3333333333333,109.230495797245L288.6666666666667,109.23019455635762L289,109.22989785970805L289.33333333333337,109.22960563874611L289.66666666666663,109.2293178259558L290,109.22903435483963L290.3333333333333,109.22875515990313L290.6666666666667,109.22848017663983L291,109.22820934151645L291.33333333333337,109.22794259195797L291.66666666666663,109.2276798663334L292,109.22742110394142L292.3333333333333,109.22716624499648L292.6666666666667,109.22691523061476L293,109.22666800280086L293.3333333333333,109.22642450443414L293.66666666666663,109.22618467925562L294,109.22594847185505L294.3333333333333,109.22571582765801L294.6666666666667,109.22548669291336L295,109.2252610146808L295.3333333333333,109.22503874081858L295.66666666666663,109.2248198199716L296,109.22460420155943L296.3333333333333,109.22439183576458L296.6666666666667,109.22418267352114L297,109.22397666650335L297.3333333333333,109.22377376711444L297.66666666666663,109.22357392847556L298,109.22337710441516L298.3333333333333,109.22318324945815L298.6666666666667,109.22299231881539L299,109.22280426837341L299.3333333333333,109.22261905468423L299.6666666666667,109.22243663495524L300,109.22225696703933L300.3333333333333,109.2220800094253L300.6666666666667,109.22190572122804L301,109.22173406217922L301.3333333333333,109.22156499261797L301.6666666666667,109.22139847348174L302,109.22123446629718L302.33333333333337,109.22107293317131L302.6666666666667,109.22091383678284L303,109.22075714037345L303.3333333333333,109.22060280773925L303.6666666666667,109.2204508032226L304,109.22030109170367L304.33333333333337,109.22015363859245L304.6666666666667,109.22000840982071L305,109.21986537183412L305.3333333333333,109.2197244915846L305.6666666666667,109.21958573652253L306,109.2194490745893L306.33333333333337,109.21931447421L306.6666666666667,109.21918190428588L307,109.21905133418747L307.3333333333333,109.2189227337472L307.6666666666667,109.21879607325266L308,109.21867132343968L308.33333333333337,109.21854845548555L308.66666666666663,109.2184274410022L309,109.21830825202997L309.3333333333333,109.21819086103093L309.6666666666667,109.21807524088251L310,109.21796136487131L310.33333333333337,109.21784920668694L310.66666666666663,109.21773874041585L311,109.2176299405354L311.3333333333333,109.21752278190803L311.6666666666667,109.21741723977533L312,109.21731328975235L312.33333333333337,109.21721090782202L312.66666666666663,109.21711007032957L313,109.21701075397701L313.3333333333333,109.21691293581796L313.6666666666667,109.21681659325196L314,109.21672170401968L314.33333333333337,109.21662824619744L314.66666666666663,109.21653619819236L315,109.21644553873722L315.3333333333333,109.21635624688568L315.6666666666667,109.21626830200734L316,109.21618168378308L316.33333333333337,109.21609637220016L316.66666666666663,109.21601234754786L317,109.21592959041274L317.3333333333333,109.21584808167421L317.6666666666667,109.21576780250018L318,109.2156887343425L318.3333333333333,109.21561085893302L318.66666666666663,109.21553415827898L319,109.21545861465916L319.3333333333333,109.21538421061956L319.6666666666667,109.21531092896964L320,109.21523875277802L320.3333333333333,109.21516766536882L320.66666666666663,109.21509765031766L321,109.21502869144794L321.3333333333333,109.21496077282714L321.6666666666667,109.21489387876301L322,109.21482799380004L322.3333333333333,109.21476310271595L322.66666666666663,109.21469919051788L323,109.21463624243938L323.3333333333333,109.21457424393662L323.6666666666667,109.2145131806852L324,109.21445303857675L324.3333333333333,109.21439380371578L324.6666666666667,109.21433546241647L325,109.21427800119935L325.3333333333333,109.21422140678831L325.6666666666667,109.21416566610753L326,109.2141107662784L326.3333333333333,109.21405669461669L326.6666666666667,109.21400343862936L327,109.21395098601201L327.33333333333337,109.2138993246457L327.6666666666667,109.21384844259433L328,109.21379832810194L328.3333333333333,109.21374896958983L328.6666666666667,109.213700355654L329,109.21365247506242L329.33333333333337,109.21360531675259L329.6666666666667,109.21355886982886L330,109.21351312355989L330.3333333333333,109.21346806737628L330.6666666666667,109.21342369086804L331,109.21337998378218L331.33333333333337,109.21333693602054L331.6666666666667,109.21329453763707L332,109.21325277883588L332.3333333333333,109.21321164996885L332.6666666666667,109.2131711415334L333,109.21313124417026L333.33333333333337,109.21309194866129L333.66666666666663,109.21305324592763L334,109.21301512702709L334.3333333333333,109.21297758315256L334.6666666666667,109.21294060562977L335,109.21290418591525L335.33333333333337,109.21286831559439L335.66666666666663,109.21283298637962L336,109.21279819010826L336.3333333333333,109.21276391874085L336.6666666666667,109.21273016435919L337,109.2126969191645L337.33333333333337,109.21266417547565L337.66666666666663,109.21263192572741L338,109.2126001624687L338.3333333333333,109.21256887836074L338.6666666666667,109.21253806617548L339,109.21250771879403L339.33333333333337,109.21247782920472L339.66666666666663,109.21244839050175L340,109.21241939588347L340.3333333333333,109.21239083865083L340.6666666666667,109.21236271220585L341,109.21233501005008L341.33333333333337,109.21230772578303L341.66666666666663,109.2122808531009L342,109.21225438579489L342.3333333333333,109.21222831774986L342.6666666666667,109.21220264294294L343,109.21217735544207L343.3333333333333,109.21215244940478L343.66666666666663,109.21212791907664L344,109.21210375879L344.3333333333333,109.21207996296286L344.6666666666667,109.21205652609726L345,109.21203344277822L345.3333333333333,109.21201070767256L345.66666666666663,109.21198831552735L346,109.21196626116912L346.3333333333333,109.21194453950221L346.6666666666667,109.21192314550805L347,109.21190207424362L347.3333333333333,109.21188132084058L347.66666666666663,109.21186088050388L348,109.21184074851101L348.3333333333333,109.21182092021047L348.6666666666667,109.21180139102114L349,109.21178215643081L349.3333333333333,109.21176321199553L349.6666666666667,109.21174455333826L350,109.21172617614798L350.3333333333333,109.21170807617878L350.6666666666667,109.21169024924879L351,109.2116726912391L351.3333333333333,109.21165539809317L351.6666666666667,109.21163836581539L352,109.2116215904706L352.33333333333337,109.21160506818293L352.6666666666667,109.21158879513504L353,109.21157276756708L353.3333333333333,109.211556981776L353.6666666666667,109.21154143411462L354,109.21152612099061L354.33333333333337,109.21151103886609L354.6666666666667,109.21149618425639L355,109.21148155372939L355.3333333333333,109.21146714390483L355.6666666666667,109.21145295145334L356,109.21143897309591L356.33333333333337,109.21142520560286L356.6666666666667,109.21141164579336L357,109.21139829053439L357.3333333333333,109.21138513674038L357.6666666666667,109.21137218137213L358,109.21135942143647L358.33333333333337,109.21134685398525L358.66666666666663,109.21133447611481L359,109.21132228496535L359.3333333333333,109.21131027772012L359.6666666666667,109.21129845160493L360,109.21128680388748L360.33333333333337,109.21127533187652L360.66666666666663,109.21126403292163L361,109.21125290441219L361.3333333333333,109.21124194377694L361.6666666666667,109.21123114848362L362,109.21122051603797L362.33333333333337,109.21121004398341L362.66666666666663,109.2111997299005L363,109.21118957140615L363.3333333333333,109.21117956615336L363.6666666666667,109.2111697118304L364,109.21116000616053L364.33333333333337,109.21115044690131L364.66666666666663,109.21114103184411L365,109.21113175881365L365.3333333333333,109.21112262566746L365.6666666666667,109.2111136302953L366,109.21110477061896L366.33333333333337,109.21109604459139L366.66666666666663,109.21108745019646L367,109.21107898544855L367.3333333333333,109.21107064839188L367.6666666666667,109.21106243710022L368,109.21105434967643L368.3333333333333,109.21104638425194L368.66666666666663,109.2110385389864L369,109.21103081206718L369.3333333333333,109.211023201709L369.6666666666667,109.21101570615355L370,109.21100832366903L370.3333333333333,109.21100105254976L370.66666666666663,109.21099389111578L371,109.21098683771248L371.3333333333333,109.21097989071023L371.6666666666667,109.21097304850394L372,109.21096630951277L372.3333333333333,109.21095967217968L372.66666666666663,109.21095313497122L373,109.21094669637691L373.3333333333333,109.21094035490924L373.6666666666667,109.210934109103L374,109.21092795751514L374.3333333333333,109.2109218987244L374.6666666666667,109.21091593133087L375,109.21091005395581L375.3333333333333,109.21090426524137L375.6666666666667,109.21089856385007L376,109.21089294846459L376.3333333333333,109.21088741778757L376.6666666666667,109.21088197054115L377,109.21087660546681L377.33333333333337,109.21087132132493L377.6666666666667,109.21086611689466L378,109.21086099097354L378.3333333333333,109.2108559423773L378.6666666666667,109.21085096993946L379,109.21084607251112L379.33333333333337,109.21084124896078L379.6666666666667,109.21083649817402L380,109.2108318190532L380.3333333333333,109.21082721051721L380.6666666666667,109.21082267150126L381,109.21081820095668L381.33333333333337,109.2108137978505L381.6666666666667,109.21080946116547L382,109.21080518989962L382.3333333333333,109.2108009830661L382.6666666666667,109.2107968396929L383,109.21079275882275L383.33333333333337,109.21078873951276L383.66666666666663,109.21078478083439L384,109.21078088187286L384.3333333333333,109.21077704172743L384.6666666666667,109.21077325951086L385,109.21076953434923L385.33333333333337,109.21076586538192L385.66666666666663,109.2107622517612L386,109.2107586926522L386.3333333333333,109.21075518723254L386.6666666666667,109.2107517346924L387,109.21074833423401L387.33333333333337,109.21074498507178L387.66666666666663,109.21074168643187L388,109.21073843755212L388.3333333333333,109.21073523768197L388.6666666666667,109.21073208608203L389,109.21072898202416L389.33333333333337,109.21072592479123L389.66666666666663,109.21072291367688L390,109.21071994798535L390.3333333333333,109.21071702703145L390.6666666666667,109.21071415014035L391,109.21071131664729L391.33333333333337,109.21070852589767L391.66666666666663,109.21070577724672L392,109.21070307005931L392.3333333333333,109.21070040371L392.6666666666667,109.21069777758274L393,109.21069519107073L393.3333333333333,109.2106926435765L393.66666666666663,109.21069013451131L394,109.21068766329557L394.3333333333333,109.21068522935826L394.6666666666667,109.21068283213705L395,109.21068047107809L395.3333333333333,109.21067814563585L395.66666666666663,109.21067585527305L396,109.2106735994605L396.3333333333333,109.21067137767704L396.6666666666667,109.21066918940932L397,109.21066703415175L397.3333333333333,109.21066491140635L397.66666666666663,109.21066282068276L398,109.21066076149782L398.3333333333333,109.21065873337582L398.6666666666667,109.2106567358482L399,109.2106547684534L399.3333333333333,109.21065283073682L399.6666666666667,109.21065092225089L400,109.21064904255456L400.3333333333333,109.21064719121358L400.6666666666667,109.21064536780017L401,109.21064357189309L401.33333333333337,109.21064180307735L401.6666666666667,109.21064006094434L401.99999999999994,109.21063834509147L402.33333333333337,109.21063665512239L402.66666666666663,109.21063499064658L403,109.21063335127951L403.3333333333333,109.21063173664243L403.6666666666667,109.2106301463622L404,109.21062858007144L404.3333333333333,109.21062703740833L404.6666666666667,109.21062551801634L405,109.2106240215445L405.33333333333337,109.21062254764703L405.6666666666667,109.21062109598341L405.99999999999994,109.21061966621821L406.33333333333337,109.21061825802107L406.66666666666663,109.21061687106672L407,109.21061550503467L407.3333333333333,109.21061415960926L407.6666666666667,109.21061283447969L408,109.21061152933979L408.3333333333333,109.21061024388803L408.6666666666667,109.21060897782735L409,109.21060773086529L409.33333333333337,109.21060650271374L409.6666666666667,109.21060529308892L409.99999999999994,109.2106041017114L410.33333333333337,109.21060292830589L410.66666666666663,109.21060177260122L411.00000000000006,109.21060063433043L411.3333333333333,109.21059951323056L411.66666666666663,109.21059840904255L412,109.21059732151127L412.3333333333333,109.21059625038546L412.6666666666667,109.21059519541768L413,109.21059415636415L413.33333333333337,109.2105931329848L413.6666666666667,109.21059212504315L413.99999999999994,109.21059113230643L414.33333333333337,109.2105901545452L414.66666666666663,109.21058919153353L415.00000000000006,109.21058824304896L415.3333333333333,109.21058730887236L415.66666666666663,109.21058638878785L416,109.21058548258287L416.3333333333333,109.21058459004809L416.6666666666667,109.2105837109772L417,109.21058284516718L417.3333333333333,109.21058199241796L417.6666666666667,109.21058115253248L418,109.21058032531676L418.33333333333337,109.2105795105796L418.66666666666663,109.21057870813286L419.00000000000006,109.21057791779106L419.3333333333333,109.2105771393716L419.66666666666663,109.21057637269465L420,109.21057561758306L420.3333333333333,109.21057487386238L420.6666666666667,109.21057414136078L421,109.21057341990903L421.3333333333333,109.21057270934043L421.6666666666667,109.21057200949073L422,109.21057132019837L422.33333333333337,109.210570641304L422.66666666666663,109.21056997265083L423.00000000000006,109.21056931408432L423.3333333333333,109.21056866545231L423.66666666666663,109.21056802660499L424,109.2105673973947L424.3333333333333,109.21056677767609L424.6666666666667,109.21056616730596L425,109.21056556614332L425.3333333333333,109.21056497404928L425.6666666666667,109.21056439088699L426,109.21056381652173L426.33333333333337,109.21056325082083L426.6666666666667,109.21056269365357L426.99999999999994,109.21056214489118L427.33333333333337,109.2105616044069L427.66666666666663,109.2105610720759L428,109.21056054777512L428.3333333333333,109.21056003138347L428.6666666666667,109.21055952278161L429,109.21055902185205L429.3333333333333,109.210558528479L429.6666666666667,109.21055804254857L430,109.21055756394841L430.33333333333337,109.21055709256797L430.6666666666667,109.21055662829832L430.99999999999994,109.21055617103218L431.33333333333337,109.21055572066396L431.66666666666663,109.21055527708958L432,109.21055484020656L432.3333333333333,109.2105544099139L432.6666666666667,109.21055398611227L433,109.21055356870372L433.3333333333333,109.21055315759179L433.6666666666667,109.21055275268148L434,109.21055235387931L434.33333333333337,109.21055196109307L434.6666666666667,109.21055157423206L434.99999999999994,109.21055119320684L435.33333333333337,109.2105508179294L435.66666666666663,109.21055044831306L436.00000000000006,109.21055008427243L436.3333333333333,109.21054972572338L436.66666666666663,109.21054937258302L437,109.21054902476982L437.3333333333333,109.21054868220344L437.6666666666667,109.21054834480469L438,109.21054801249562L438.33333333333337,109.21054768519943L438.6666666666667,109.21054736284052L438.99999999999994,109.21054704534444L439.33333333333337,109.2105467326378L439.66666666666663,109.21054642464836L440.00000000000006,109.21054612130493L440.3333333333333,109.21054582253748L440.66666666666663,109.21054552827698L441,109.21054523845541L441.3333333333333,109.21054495300578L441.6666666666667,109.21054467186221L442,109.2105443949597L442.3333333333333,109.21054412223427L442.6666666666667,109.21054385362294L443,109.21054358906363L443.33333333333337,109.21054332849519L443.66666666666663,109.21054307185747L444.00000000000006,109.21054281909113L444.3333333333333,109.21054257013782L444.66666666666663,109.21054232493992L445,109.21054208344088L445.3333333333333,109.21054184558486L445.6666666666667,109.21054161131693L446,109.21054138058292L446.3333333333333,109.21054115332959L446.6666666666667,109.21054092950436L447,109.21054070905552L447.33333333333337,109.21054049193219L447.66666666666663,109.21054027808418L448.00000000000006,109.21054006746209L448.3333333333333,109.2105398600172L448.66666666666663,109.2105396557017L449,109.21053945446826L449.3333333333333,109.21053925627047L449.6666666666667,109.21053906106249L450,109.21053886879923L450.3333333333333,109.2105386794363L450.6666666666667,109.21053849292991L451,109.210538309237L451.33333333333337,109.21053812831508L451.6666666666667,109.21053795012239L451.99999999999994,109.21053777461773L452.33333333333337,109.21053760176056L452.66666666666663,109.210537431511L453,109.21053726382965L453.3333333333333,109.21053709867778L453.6666666666667,109.2105369360172L454,109.2105367758104L454.3333333333333,109.21053661802034L454.6666666666667,109.21053646261052L455,109.21053630954509L455.33333333333337,109.21053615878867L455.6666666666667,109.21053601030636L455.99999999999994,109.21053586406398L456.33333333333337,109.21053572002768L456.66666666666663,109.21053557816415L457,109.21053543844062L457.3333333333333,109.21053530082486L457.6666666666667,109.21053516528502L458,109.21053503178979L458.3333333333333,109.2105349003084L458.6666666666667,109.2105347708104L459,109.2105346432659L459.33333333333337,109.21053451764539L459.6666666666667,109.21053439391986L459.99999999999994,109.21053427206073L460.33333333333337,109.21053415203986L460.66666666666663,109.21053403382956L461.00000000000006,109.21053391740242L461.3333333333333,109.21053380273162L461.66666666666663,109.21053368979062L462,109.21053357855337L462.3333333333333,109.2105334689941L462.6666666666667,109.21053336108756L463,109.21053325480881L463.33333333333337,109.21053315013327L463.6666666666667,109.21053304703673L463.99999999999994,109.21053294549546L464.33333333333337,109.21053284548594L464.66666666666663,109.21053274698502L465.00000000000006,109.21053264997005L465.3333333333333,109.21053255441853L465.66666666666663,109.21053246030843L466,109.21053236761799L466.3333333333333,109.21053227632578L466.6666666666667,109.21053218641075L467,109.21053209785205L467.3333333333333,109.21053201062924L467.6666666666667,109.2105319247222L468,109.21053184011112L468.33333333333337,109.21053175677636L468.66666666666663,109.21053167469873L469.00000000000006,109.21053159385923L469.3333333333333,109.21053151423922L469.66666666666663,109.21053143582029L470,109.21053135858429L470.3333333333333,109.21053128251341L470.6666666666667,109.21053120759007L471,109.21053113379693L471.3333333333333,109.21053106111697L471.6666666666667,109.21053098953342L472,109.21053091902971L472.33333333333337,109.21053084958956L472.66666666666663,109.2105307811969L473.00000000000006,109.21053071383591L473.3333333333333,109.21053064749111L473.66666666666663,109.2105305821471L474,109.21053051778887L474.3333333333333,109.21053045440144L474.6666666666667,109.2105303919702L475,109.21053033048076L475.3333333333333,109.21053026991888L475.6666666666667,109.21053021027058L476,109.21053015152208L476.33333333333337,109.2105300936598L476.6666666666667,109.21053003667038L476.99999999999994,109.21052998054068L477.33333333333337,109.21052992525767L477.66666666666663,109.21052987080861L478,109.21052981718091L478.3333333333333,109.2105297643622L478.6666666666667,109.21052971234025L479,109.2105296611031L479.3333333333333,109.21052961063882L479.6666666666667,109.21052956093584L480,109.2105295119826L480.33333333333337,109.21052946376778L480.6666666666667,109.21052941628034L480.99999999999994,109.21052936950926L481.33333333333337,109.2105293234437L481.66666666666663,109.21052927807304L482,109.21052923338681L482.3333333333333,109.21052918937468L482.6666666666667,109.21052914602646L483,109.21052910333214L483.3333333333333,109.21052906128187L483.6666666666667,109.21052901986593L484,109.21052897907481L484.33333333333337,109.21052893889899L484.6666666666667,109.2105288993292L484.99999999999994,109.21052886035633L485.33333333333337,109.21052882197137L485.66666666666663,109.21052878416546L486.00000000000006,109.21052874692987L486.3333333333333,109.21052871025597L486.66666666666663,109.2105286741353L487,109.21052863855948L487.3333333333333,109.21052860352034L487.6666666666667,109.2105285690098L488,109.21052853501982L488.33333333333337,109.2105285015426L488.6666666666667,109.21052846857037L488.99999999999994,109.21052843609556L489.33333333333337,109.21052840411059L489.66666666666663,109.21052837260814L490.00000000000006,109.21052834158087L490.3333333333333,109.2105283110217L490.66666666666663,109.21052828092346L491,109.21052825127933L491.3333333333333,109.2105282220823L491.6666666666667,109.21052819332579L492,109.21052816500304L492.3333333333333,109.21052813710753L492.6666666666667,109.21052810963286L493,109.21052808257261L493.33333333333337,109.21052805592055L493.66666666666663,109.21052802967054L494.00000000000006,109.21052800381656L494.3333333333333,109.21052797835256L494.66666666666663,109.2105279532727L495,109.21052792857117L495.3333333333333,109.21052790424224L495.6666666666667,109.21052788028035L496,109.2105278566799L496.3333333333333,109.21052783343546L496.6666666666667,109.21052781054166L497,109.21052778799324L497.33333333333337,109.21052776578497L497.66666666666663,109.21052774391171L498.00000000000006,109.2105277223684L498.3333333333333,109.21052770115008L498.66666666666663,109.21052768025183L499,109.21052765966883L499.3333333333333,109.2105276393963L499.6666666666667,109.2105276194296L500,109.2105275997641L500.3333333333333,109.21052758039528L500.6666666666667,109.21052756131863L501,109.21052754252972L501.33333333333337,109.21052752402426L501.6666666666667,109.21052750579798L501.99999999999994,109.21052748784663L502.33333333333337,109.21052747016608L502.66666666666663,109.21052745275225L503,109.21052743560108L503.3333333333333,109.21052741870864L503.6666666666667,109.21052740207105L504,109.21052738568443L504.3333333333333,109.21052736954499L504.6666666666667,109.21052735364901L505,109.21052733799283L505.33333333333337,109.2105273225728L505.6666666666667,109.2105273073854L505.99999999999994,109.21052729242714L506.33333333333337,109.2105272776945L506.66666666666663,109.2105272631841L507,109.21052724889256L507.3333333333333,109.21052723481668L507.6666666666667,109.21052722095305L508,109.21052720729861L508.3333333333333,109.21052719385017L508.6666666666667,109.21052718060457L509,109.21052716755878L509.33333333333337,109.21052715470978L509.6666666666667,109.21052714205462L509.99999999999994,109.21052712959036L510.33333333333337,109.21052711731411L510.66666666666663,109.21052710522306L511.00000000000006,109.21052709331443L511.3333333333333,109.21052708158541L511.66666666666663,109.21052707003332L512,109.21052705865552L512.3333333333333,109.21052704744935L512.6666666666667,109.2105270364122L513,109.21052702554158L513.3333333333334,109.2105270148349L513.6666666666666,109.21052700428976L514,109.2105269939037L514.3333333333334,109.21052698367433L514.6666666666666,109.21052697359923L515,109.21052696367613L515.3333333333334,109.2105269539027L515.6666666666666,109.21052694427675L516,109.21052693479595L516.3333333333333,109.2105269254582L516.6666666666667,109.21052691626133L517,109.21052690720316L517.3333333333333,109.21052689828167L517.6666666666666,109.2105268894947L518,109.21052688084035L518.3333333333334,109.2105268723165L518.6666666666666,109.21052686392125L519,109.21052685565263L519.3333333333334,109.21052684750876L519.6666666666666,109.21052683948776L520,109.21052683158774L520.3333333333333,109.21052682380687L520.6666666666667,109.21052681614341L521,109.21052680859555L521.3333333333333,109.21052680116154L521.6666666666666,109.21052679383968L522,109.21052678662824L522.3333333333334,109.21052677952562L522.6666666666666,109.21052677253013L523,109.21052676564017L523.3333333333334,109.21052675885417L523.6666666666666,109.21052675217047L524,109.21052674558766L524.3333333333334,109.2105267391041L524.6666666666667,109.21052673271836L525,109.21052672642898L525.3333333333333,109.21052672023441L525.6666666666666,109.21052671413338L526,109.21052670812432L526.3333333333334,109.21052670220593L526.6666666666666,109.2105266963768L527,109.21052669063565L527.3333333333334,109.21052668498106L527.6666666666666,109.21052667941177L528,109.2105266739265L528.3333333333334,109.21052666852398L528.6666666666667,109.21052666320296L529,109.21052665796219L529.3333333333333,109.2105266528005L529.6666666666667,109.21052664771668L530,109.21052664270954L530.3333333333334,109.21052663777792L530.6666666666666,109.2105266329207L531,109.21052662813676L531.3333333333334,109.21052662342501L531.6666666666666,109.21052661878429L532,109.21052661421359L532.3333333333334,109.21052660971182L532.6666666666667,109.21052660527798L533,109.21052660091104L533.3333333333333,109.21052659660995L533.6666666666667,109.21052659237378L534,109.21052658820147L534.3333333333334,109.21052658409212L534.6666666666666,109.21052658004479L535,109.2105265760585L535.3333333333334,109.2105265721323L535.6666666666666,109.21052656826535L536,109.21052656445676L536.3333333333334,109.2105265607056L536.6666666666666,109.21052655701104L537,109.21052655337218L537.3333333333333,109.21052654978823L537.6666666666667,109.21052654625834L538,109.21052654278171L538.3333333333334,109.21052653935752L538.6666666666666,109.21052653598497L539,109.2105265326633L539.3333333333334,109.21052652939176L539.6666666666666,109.21052652616956L540,109.21052652299596L540.3333333333334,109.21052651987023L540.6666666666666,109.21052651679167L541,109.21052651375956L541.3333333333333,109.21052651077318L541.6666666666667,109.21052650783182L542,109.21052650493488L542.3333333333333,109.21052650208159L542.6666666666666,109.21052649927137L543,109.21052649650355L543.3333333333334,109.21052649377745L543.6666666666666,109.21052649109248L544,109.21052648844804L544.3333333333334,109.21052648584345L544.6666666666666,109.21052648327816L545,109.21052648075158L545.3333333333333,109.21052647826315L545.6666666666667,109.2105264758122L546,109.21052647339826L546.3333333333333,109.21052647102073L546.6666666666666,109.21052646867903L547,109.2105264663727L547.3333333333334,109.21052646410115L547.6666666666666,109.21052646186388L548,109.21052645966031L548.3333333333334,109.21052645749003L548.6666666666666,109.21052645535246L549,109.21052645324716L549.3333333333334,109.21052645117359L549.6666666666667,109.21052644913132L550,109.21052644711983L550.3333333333333,109.21052644513873L550.6666666666666,109.21052644318746L551,109.21052644126567L551.3333333333334,109.21052643937281L551.6666666666666,109.21052643750858L552,109.21052643567242L552.3333333333334,109.21052643386398L552.6666666666666,109.21052643208282L553,109.21052643032851L553.3333333333334,109.2105264286007L553.6666666666667,109.21052642689892L554,109.21052642522284L554.3333333333333,109.21052642357202L554.6666666666667,109.21052642194613L555,109.21052642034473L555.3333333333334,109.2105264187675L555.6666666666666,109.21052641721411L556,109.21052641568411L556.3333333333334,109.21052641417722L556.6666666666666,109.21052641269299L557,109.2105264112312L557.3333333333334,109.21052640979144L557.6666666666667,109.21052640837343L558,109.21052640697681L558.3333333333333,109.21052640560123L558.6666666666667,109.21052640424642L559,109.21052640291205L559.3333333333334,109.2105264015978L559.6666666666666,109.21052640030337L560,109.21052639902851L560.3333333333334,109.21052639777281L560.6666666666666,109.2105263965361L561,109.21052639531803L561.3333333333334,109.21052639411832L561.6666666666666,109.21052639293674L562,109.21052639177293L562.3333333333333,109.21052639062671L562.6666666666667,109.21052638949777L563,109.21052638838592L563.3333333333334,109.2105263872908L563.6666666666666,109.2105263862122L564,109.21052638514988L564.3333333333334,109.21052638410353L564.6666666666666,109.21052638307302L565,109.21052638205805L565.3333333333334,109.21052638105837L565.6666666666666,109.21052638007379L566,109.21052637910404L566.3333333333333,109.21052637814893L566.6666666666667,109.21052637720825L567,109.21052637628173L567.3333333333333,109.21052637536923L567.6666666666666,109.21052637447045L568,109.21052637358525L568.3333333333334,109.21052637271339L568.6666666666666,109.21052637185471L569,109.21052637100894L569.3333333333334,109.21052637017596L569.6666666666666,109.21052636935553L570,109.21052636854748L570.3333333333333,109.21052636775161L570.6666666666667,109.21052636696774L571,109.21052636619572L571.3333333333333,109.21052636543533L571.6666666666666,109.21052636468644L572,109.21052636394882L572.3333333333334,109.21052636322233L572.6666666666666,109.21052636250681L573,109.21052636180207L573.3333333333334,109.21052636110795L573.6666666666666,109.2105263604243L574,109.21052635975101L574.3333333333334,109.21052635908785L574.6666666666667,109.21052635843469L575,109.2105263577914L575.3333333333333,109.21052635715779L575.6666666666666,109.21052635653376L576,109.21052635591911L576.3333333333334,109.21052635531376L576.6666666666666,109.2105263547175L577,109.21052635413028L577.3333333333334,109.2105263535519L577.6666666666666,109.2105263529823L578,109.21052635242125L578.3333333333334,109.21052635186865L578.6666666666667,109.21052635132435L579,109.21052635078831L579.3333333333333,109.21052635026038L579.6666666666667,109.21052634974038L580,109.21052634922825L580.3333333333334,109.21052634872379L580.6666666666666,109.210526348227L581,109.21052634773767L581.3333333333334,109.21052634725575L581.6666666666666,109.21052634678108L582,109.21052634631357L582.3333333333334,109.21052634585311L582.6666666666667,109.21052634539959L583,109.21052634495291L583.3333333333333,109.21052634451297L583.6666666666667,109.21052634407968L584,109.21052634365293L584.3333333333334,109.2105263432326L584.6666666666666,109.21052634281864L585,109.21052634241087L585.3333333333334,109.21052634200927L585.6666666666666,109.21052634161376L586,109.21052634122421L586.3333333333334,109.21052634084054L586.6666666666666,109.21052634046265L587,109.21052634009044L587.3333333333333,109.21052633972386L587.6666666666667,109.21052633936281L588,109.2105263390072L588.3333333333334,109.21052633865696L588.6666666666666,109.21052633831201L589,109.21052633797223L589.3333333333334,109.21052633763762L589.6666666666666,109.21052633730804L590,109.21052633698343L590.3333333333334,109.21052633666372L590.6666666666666,109.21052633634883L591,109.21052633603867L591.3333333333333,109.21052633573322L591.6666666666667,109.21052633543238L592,109.21052633513602L592.3333333333333,109.21052633484422L592.6666666666666,109.21052633455676L593,109.21052633427362L593.3333333333334,109.2105263339948L593.6666666666666,109.21052633372017L594,109.21052633344968L594.3333333333334,109.21052633318331L594.6666666666666,109.21052633292092L595,109.21052633266248L595.3333333333333,109.21052633240797L595.6666666666667,109.21052633215726L596,109.21052633191036L596.3333333333333,109.21052633166718L596.6666666666666,109.21052633142764L597,109.21052633119172L597.3333333333334,109.21052633095942L597.6666666666666,109.21052633073057L598,109.21052633050519L598.3333333333334,109.21052633028319L598.6666666666666,109.21052633006457L599,109.21052632984919L599.3333333333334,109.2105263296371L599.6666666666667,109.2105263294282L600,109.21052632922243L600.3333333333333,109.21052632901979L600.6666666666666,109.21052632882024L601,109.21052632862367L601.3333333333334,109.21052632843006L601.6666666666666,109.21052632823938L602,109.21052632805157L602.3333333333334,109.21052632786657L602.6666666666666,109.21052632768442L603,109.21052632750502L603.3333333333334,109.2105263273283L603.6666666666667,109.21052632715418L604,109.21052632698277L604.3333333333333,109.21052632681389L604.6666666666667,109.2105263266476L605,109.2105263264838L605.3333333333334,109.21052632632245L605.6666666666666,109.21052632616355L606,109.21052632600708L606.3333333333334,109.2105263258529L606.6666666666666,109.2105263257011L607,109.21052632555157L607.3333333333334,109.21052632540432L607.6666666666667,109.21052632525928L608,109.21052632511646L608.3333333333333,109.21052632497575L608.6666666666667,109.21052632483713L609,109.21052632470068L609.3333333333334,109.21052632456625L609.6666666666666,109.21052632443386L610,109.21052632430343L610.3333333333334,109.21052632417505L610.6666666666666,109.21052632404854L611,109.21052632392394L611.3333333333334,109.21052632380125L611.6666666666666,109.21052632368037L612,109.21052632356134L612.3333333333333,109.2105263234441L612.6666666666667,109.21052632332862L613,109.21052632321488L613.3333333333334,109.21052632310287L613.6666666666666,109.21052632299256L614,109.21052632288388L614.3333333333334,109.21052632277684L614.6666666666666,109.21052632267146L615,109.21052632256766L615.3333333333334,109.2105263224654L615.6666666666666,109.21052632236473L616,109.21052632226554L616.3333333333333,109.21052632216785L616.6666666666667,109.21052632207162L617,109.21052632197686L617.3333333333333,109.21052632188349L617.6666666666666,109.21052632179158L618,109.21052632170105L618.3333333333334,109.21052632161187L618.6666666666666,109.21052632152407L619,109.21052632143753L619.3333333333334,109.21052632135232L619.6666666666666,109.21052632126842L620,109.21052632118577L620.3333333333333,109.21052632110437L620.6666666666667,109.21052632102419L621,109.21052632094526L621.3333333333333,109.21052632086747L621.6666666666666,109.21052632079088L622,109.21052632071542L622.3333333333334,109.2105263206411L622.6666666666666,109.21052632056794L623,109.21052632049586L623.3333333333334,109.21052632042483L623.6666666666666,109.21052632035492L624,109.21052632028605L624.3333333333334,109.21052632021821L624.6666666666667,109.21052632015139L625,109.21052632008556L625.3333333333333,109.21052632002076L625.6666666666666,109.21052631995695L626,109.21052631989409L626.3333333333334,109.21052631983218L626.6666666666666,109.21052631977119L627,109.21052631971111L627.3333333333334,109.21052631965196L627.6666666666666,109.21052631959367L628,109.21052631953629L628.3333333333334,109.21052631947978L628.6666666666667,109.2105263194241L629,109.21052631936928L629.3333333333333,109.2105263193153L629.6666666666667,109.2105263192621L630,109.21052631920972L630.3333333333334,109.21052631915808L630.6666666666666,109.21052631910729L631,109.21052631905721L631.3333333333334,109.2105263190079L631.6666666666666,109.21052631895938L632,109.21052631891155L632.3333333333334,109.21052631886445L632.6666666666667,109.21052631881807L633,109.21052631877237L633.3333333333333,109.21052631872737L633.6666666666667,109.21052631868307L634,109.21052631863941L634.3333333333334,109.21052631859644L634.6666666666666,109.21052631855412L635,109.21052631851236L635.3333333333334,109.2105263184713L635.6666666666666,109.21052631843082L636,109.210526318391L636.3333333333334,109.21052631835175L636.6666666666666,109.2105263183131L637,109.21052631827502L637.3333333333333,109.21052631823753L637.6666666666667,109.2105263182006L638,109.21052631816426L638.3333333333334,109.21052631812842L638.6666666666666,109.21052631809312L639,109.21052631805836L639.3333333333334,109.21052631802414L639.6666666666666,109.21052631799043L640,109.2105263179572L640.3333333333334,109.21052631792452L640.6666666666666,109.21052631789235L641,109.21052631786063L641.3333333333333,109.21052631782936L641.6666666666667,109.21052631779861L642,109.21052631776828L642.3333333333333,109.21052631773844L642.6666666666666,109.21052631770905L643,109.21052631768009L643.3333333333334,109.21052631765156L643.6666666666666,109.21052631762348L644,109.2105263175958L644.3333333333334,109.2105263175686L644.6666666666666,109.21052631754173L645,109.2105263175153L645.3333333333333,109.21052631748924L645.6666666666667,109.21052631746363L646,109.21052631743837L646.3333333333333,109.21052631741347L646.6666666666666,109.21052631738897L647,109.21052631736487L647.3333333333334,109.21052631734108L647.6666666666666,109.21052631731766L648,109.21052631729461L648.3333333333334,109.2105263172719L648.6666666666666,109.2105263172495L649,109.2105263172275L649.3333333333334,109.21052631720582L649.6666666666667,109.21052631718442L650,109.21052631716341L650.3333333333333,109.21052631714267L650.6666666666666,109.21052631712229L651,109.21052631710216L651.3333333333334,109.21052631708235L651.6666666666666,109.21052631706283L652,109.21052631704362L652.3333333333334,109.21052631702469L652.6666666666666,109.21052631700607L653,109.21052631698771L653.3333333333334,109.21052631696963L653.6666666666667,109.21052631695181L654,109.2105263169343L654.3333333333333,109.21052631691703L654.6666666666667,109.2105263169L655,109.21052631688323L655.3333333333334,109.21052631686675L655.6666666666666,109.21052631685049L656,109.21052631683449L656.3333333333334,109.21052631681869L656.6666666666666,109.21052631680317L657,109.21052631678788L657.3333333333334,109.21052631677279L657.6666666666667,109.21052631675798L658,109.21052631674334L658.3333333333333,109.21052631672896L658.6666666666667,109.2105263167148L659,109.21052631670085L659.3333333333334,109.2105263166871L659.6666666666666,109.21052631667354L660,109.21052631666021L660.3333333333334,109.21052631664705L660.6666666666666,109.21052631663414L661,109.21052631662138L661.3333333333334,109.21052631660885L661.6666666666666,109.21052631659646L662,109.21052631658432L662.3333333333333,109.21052631657233L662.6666666666667,109.2105263165605L663,109.21052631654888L663.3333333333334,109.21052631653743L663.6666666666666,109.21052631652617L664,109.21052631651503L664.3333333333334,109.21052631650409L664.6666666666666,109.21052631649329L665,109.21052631648266L665.3333333333334,109.2105263164722L665.6666666666666,109.21052631646191L666,109.21052631645179L666.3333333333333,109.21052631644176L666.6666666666667,109.21052631643192L667,109.2105263164222L667.3333333333333,109.21052631641268L667.6666666666666,109.21052631640327L668,109.21052631639401L668.3333333333334,109.21052631638491L668.6666666666666,109.21052631637593L669,109.2105263163671L669.3333333333334,109.2105263163584L669.6666666666666,109.21052631634979L670,109.21052631634134L670.3333333333333,109.21052631633302L670.6666666666667,109.21052631632483L671,109.21052631631673L671.3333333333333,109.2105263163088L671.6666666666666,109.21052631630096L672,109.21052631629325L672.3333333333334,109.21052631628564L672.6666666666666,109.21052631627816L673,109.2105263162708L673.3333333333334,109.21052631626353L673.6666666666666,109.21052631625636L674,109.21052631624931L674.3333333333334,109.21052631624238L674.6666666666667,109.21052631623556L675,109.21052631622882L675.3333333333333,109.2105263162222L675.6666666666666,109.21052631621563L676,109.21052631620924L676.3333333333334,109.21052631620287L676.6666666666666,109.21052631619665L677,109.21052631619048L677.3333333333334,109.21052631618446L677.6666666666666,109.21052631617852L678,109.2105263161726L678.3333333333334,109.21052631616683L678.6666666666667,109.21052631616115L679,109.21052631615552L679.3333333333333,109.21052631614998L679.6666666666667,109.21052631614455L680,109.21052631613921L680.3333333333334,109.2105263161339L680.6666666666666,109.21052631612872L681,109.21052631612358L681.3333333333334,109.21052631611855L681.6666666666666,109.2105263161136L682,109.21052631610868L682.3333333333334,109.21052631610385L682.6666666666667,109.21052631609913L683,109.21052631609447L683.3333333333333,109.21052631608987L683.6666666666667,109.21052631608535L684,109.21052631608086L684.3333333333334,109.21052631607648L684.6666666666666,109.21052631607213L685,109.2105263160679L685.3333333333334,109.21052631606369L685.6666666666666,109.21052631605954L686,109.21052631605548L686.3333333333334,109.21052631605144L686.6666666666666,109.21052631604752L687,109.21052631604357L687.3333333333333,109.21052631603979L687.6666666666667,109.21052631603601L688,109.21052631603229L688.3333333333334,109.21052631602862L688.6666666666666,109.21052631602504L689,109.21052631602146L689.3333333333334,109.21052631601796L689.6666666666666,109.21052631601452L690,109.21052631601114L690.3333333333334,109.21052631600782L690.6666666666666,109.21052631600452L691,109.21052631600125L691.3333333333333,109.21052631599804L691.6666666666667,109.21052631599491L692,109.21052631599181L692.3333333333333,109.21052631598874L692.6666666666666,109.21052631598576L693,109.2105263159828L693.3333333333334,109.21052631597985L693.6666666666666,109.210526315977L694,109.21052631597416L694.3333333333334,109.2105263159714L694.6666666666666,109.21052631596865L695,109.21052631596595L695.3333333333333,109.21052631596328L695.6666666666667,109.21052631596064L696,109.21052631595808L696.3333333333333,109.21052631595552L696.6666666666666,109.21052631595305L697,109.21052631595057L697.3333333333334,109.21052631594813L697.6666666666666,109.21052631594574L698,109.21052631594338L698.3333333333334,109.21052631594105L698.6666666666666,109.21052631593881L699,109.21052631593653L699.3333333333334,109.21052631593429L699.6666666666667,109.2105263159321L700,109.21052631592997L700.3333333333333,109.21052631592786L700.6666666666666,109.21052631592576L701,109.21052631592372L701.3333333333334,109.21052631592167L701.6666666666666,109.21052631591968L702,109.21052631591772L702.3333333333334,109.21052631591579L702.6666666666666,109.21052631591388L703,109.210526315912L703.3333333333334,109.21052631591019L703.6666666666667,109.21052631590834L704,109.21052631590658L704.3333333333333,109.21052631590481L704.6666666666667,109.21052631590308L705,109.21052631590135L705.3333333333334,109.2105263158997L705.6666666666666,109.21052631589802L706,109.21052631589643L706.3333333333334,109.21052631589478L706.6666666666666,109.21052631589319L707,109.2105263158916L707.3333333333334,109.21052631589006L707.6666666666667,109.21052631588856L708,109.21052631588708L708.3333333333333,109.2105263158856L708.6666666666667,109.21052631588412L709,109.2105263158827L709.3333333333334,109.21052631588128L709.6666666666666,109.21052631587992L710,109.21052631587855L710.3333333333334,109.21052631587722L710.6666666666666,109.21052631587588L711,109.21052631587457L711.3333333333334,109.21052631587327L711.6666666666666,109.21052631587202L712,109.2105263158708L712.3333333333333,109.21052631586954L712.6666666666667,109.21052631586832L713,109.21052631586716L713.3333333333334,109.21052631586599L713.6666666666666,109.21052631586483L714,109.21052631586366L714.3333333333334,109.21052631586255L714.6666666666666,109.21052631586144L715,109.21052631586036L715.3333333333334,109.21052631585928L715.6666666666666,109.21052631585826L716,109.21052631585724L716.3333333333333,109.21052631585619L716.6666666666667,109.21052631585519L717,109.2105263158542L717.3333333333333,109.2105263158532L717.6666666666666,109.21052631585226L718,109.2105263158513L718.3333333333334,109.21052631585039L718.6666666666666,109.21052631584948L719,109.21052631584857L719.3333333333334,109.21052631584766L719.6666666666666,109.2105263158468L720,109.21052631584593L720.3333333333333,109.2105263158451L720.6666666666667,109.21052631584428L721,109.21052631584342L721.3333333333333,109.2105263158426L721.6666666666666,109.2105263158418L722,109.21052631584101L722.3333333333334,109.21052631584024L722.6666666666666,109.21052631583947L723,109.2105263158387L723.3333333333334,109.21052631583797L723.6666666666666,109.21052631583723L724,109.21052631583652L724.3333333333334,109.2105263158358L724.6666666666667,109.2105263158351L725,109.21052631583441L725.3333333333333,109.21052631583373L725.6666666666666,109.21052631583308L726,109.21052631583242L726.3333333333334,109.21052631583177L726.6666666666666,109.21052631583112L727,109.21052631583049L727.3333333333334,109.2105263158299L727.6666666666666,109.21052631582924L728,109.21052631582864L728.3333333333334,109.21052631582805L728.6666666666667,109.21052631582748L729,109.21052631582691L729.3333333333333,109.21052631582634L729.6666666666667,109.21052631582577L730,109.2105263158252L730.3333333333334,109.2105263158247L730.6666666666666,109.21052631582415L731,109.21052631582361L731.3333333333334,109.21052631582313L731.6666666666666,109.21052631582262L732,109.21052631582211L732.3333333333334,109.21052631582162L732.6666666666667,109.21052631582114L733,109.21052631582066L733.3333333333333,109.21052631582018L733.6666666666667,109.21052631581972L734,109.21052631581927L734.3333333333334,109.21052631581881L734.6666666666666,109.21052631581838L735,109.21052631581796L735.3333333333334,109.21052631581753L735.6666666666666,109.2105263158171L736,109.21052631581665L736.3333333333334,109.21052631581625L736.6666666666666,109.21052631581586L737,109.21052631581546L737.3333333333333,109.21052631581506L737.6666666666667,109.21052631581469L738,109.21052631581432L738.3333333333334,109.21052631581392L738.6666666666666,109.21052631581355L739,109.21052631581318L739.3333333333334,109.21052631581287L739.6666666666666,109.2105263158125L740,109.21052631581213L740.3333333333334,109.21052631581179L740.6666666666666,109.21052631581145L741,109.21052631581114L741.3333333333333,109.21052631581082L741.6666666666667,109.21052631581048L742,109.21052631581017L742.3333333333333,109.21052631580983L742.6666666666666,109.21052631580952L743,109.21052631580923L743.3333333333334,109.21052631580892L743.6666666666666,109.21052631580864L744,109.21052631580832L744.3333333333334,109.21052631580807L744.6666666666666,109.21052631580775L745,109.2105263158075L745.3333333333333,109.21052631580724L745.6666666666667,109.21052631580696L746,109.2105263158067L746.3333333333333,109.21052631580642L746.6666666666666,109.21052631580616L747,109.21052631580594L747.3333333333334,109.21052631580571L747.6666666666666,109.21052631580542L748,109.2105263158052L748.3333333333334,109.21052631580497L748.6666666666666,109.21052631580471L749,109.21052631580446L749.3333333333334,109.21052631580426L749.6666666666667,109.21052631580403L750,109.21052631580383L750.3333333333333,109.2105263158036L750.6666666666666,109.2105263158034L751,109.21052631580318L751.3333333333334,109.21052631580298L751.6666666666666,109.21052631580272L752,109.21052631580253L752.3333333333334,109.21052631580238L752.6666666666666,109.21052631580216L753,109.21052631580196L753.3333333333334,109.21052631580181L753.6666666666667,109.21052631580162L754,109.21052631580142L754.3333333333333,109.21052631580122L754.6666666666667,109.21052631580105L755,109.21052631580088L755.3333333333334,109.2105263158007L755.6666666666666,109.21052631580054L756,109.21052631580037L756.3333333333334,109.2105263158002L756.6666666666666,109.21052631580005L757,109.21052631579991L757.3333333333334,109.21052631579974L757.6666666666667,109.21052631579957L758,109.2105263157994L758.3333333333333,109.21052631579923L758.6666666666667,109.21052631579911L759,109.21052631579897L759.3333333333334,109.21052631579883L759.6666666666666,109.21052631579872L760,109.21052631579857L760.3333333333334,109.21052631579843L760.6666666666666,109.21052631579832L761,109.21052631579818L761.3333333333334,109.210526315798L761.6666666666666,109.21052631579786L762,109.21052631579775L762.3333333333333,109.21052631579761L762.6666666666667,109.21052631579747L763,109.21052631579738L763.3333333333334,109.21052631579727L763.6666666666666,109.21052631579715L764,109.21052631579704L764.3333333333334,109.21052631579695L764.6666666666666,109.21052631579684L765,109.2105263157967L765.3333333333334,109.21052631579661L765.6666666666666,109.2105263157965L766,109.21052631579641L766.3333333333333,109.21052631579627L766.6666666666667,109.21052631579619L767,109.21052631579607L767.3333333333333,109.21052631579599L767.6666666666666,109.21052631579585L768,109.21052631579573L768.3333333333334,109.21052631579565L768.6666666666666,109.21052631579553L769,109.21052631579548L769.3333333333334,109.21052631579536L769.6666666666666,109.2105263157953L770,109.21052631579525L770.3333333333333,109.21052631579514L770.6666666666667,109.21052631579508L771,109.21052631579497L771.3333333333333,109.21052631579491L771.6666666666666,109.21052631579482L772,109.21052631579474L772.3333333333334,109.21052631579468L772.6666666666666,109.21052631579457L773,109.21052631579451L773.3333333333334,109.2105263157944L773.6666666666666,109.21052631579434L774,109.21052631579425L774.3333333333334,109.21052631579417L774.6666666666667,109.21052631579408L775,109.210526315794L775.3333333333333,109.21052631579394L775.6666666666666,109.21052631579386L776,109.21052631579377L776.3333333333334,109.21052631579374L776.6666666666666,109.21052631579369L777,109.21052631579363L777.3333333333334,109.21052631579357L777.6666666666666,109.21052631579352L778,109.21052631579349L778.3333333333334,109.2105263157934L778.6666666666667,109.21052631579335L779,109.21052631579332L779.3333333333333,109.21052631579323L779.6666666666667,109.2105263157932L780,109.21052631579315L780.3333333333334,109.21052631579309L780.6666666666666,109.21052631579303L781,109.21052631579298L781.3333333333334,109.21052631579292L781.6666666666666,109.21052631579289L782,109.2105263157928L782.3333333333334,109.21052631579278L782.6666666666667,109.21052631579272L783,109.21052631579263L783.3333333333333,109.2105263157926L783.6666666666667,109.21052631579255L784,109.21052631579246L784.3333333333334,109.21052631579244L784.6666666666666,109.21052631579238L785,109.21052631579235L785.3333333333334,109.21052631579226L785.6666666666666,109.21052631579221L786,109.21052631579218L786.3333333333334,109.21052631579212L786.6666666666666,109.21052631579207L787,109.21052631579204L787.3333333333333,109.21052631579204L787.6666666666667,109.21052631579201L788,109.21052631579198L788.3333333333334,109.21052631579195L788.6666666666666,109.21052631579192L789,109.21052631579192L789.3333333333334,109.21052631579187L789.6666666666666,109.21052631579184L790,109.21052631579181L790.3333333333334,109.21052631579178L790.6666666666666,109.21052631579175L791,109.21052631579175L791.3333333333333,109.21052631579172L791.6666666666667,109.21052631579167L792,109.21052631579164L792.3333333333333,109.21052631579161L792.6666666666666,109.21052631579161L793,109.21052631579158L793.3333333333334,109.21052631579155L793.6666666666666,109.21052631579153L794,109.21052631579147L794.3333333333334,109.21052631579144L794.6666666666666,109.21052631579144L795,109.21052631579141L795.3333333333333,109.21052631579138L795.6666666666667,109.21052631579136L796,109.2105263157913L796.3333333333333,109.2105263157913L796.6666666666666,109.21052631579127L797,109.21052631579124L797.3333333333334,109.21052631579121L797.6666666666666,109.21052631579118L798,109.21052631579118L798.3333333333334,109.21052631579116L798.6666666666666,109.2105263157911L799,109.21052631579107L799.3333333333334,109.21052631579104L799.6666666666667,109.21052631579101" fill="none" stroke="#0433ff" style="
    stroke-width: 15;
    stroke-linecap: square;
"></path></g></g></svg>